<?xml version="1.0" encoding="UTF-8"?>
<svg width="352px" height="305px" viewBox="0 0 352 305" version="1.1" xmlns="http://www.w3.org/2000/svg" xmlns:xlink="http://www.w3.org/1999/xlink">
    <!-- Generator: Sketch 52.6 (67491) - http://www.bohemiancoding.com/sketch -->
    <title>Slice</title>
    <desc>Created with Sketch.</desc>
    <g id="Page-1" stroke="none" stroke-width="1" fill="none" fill-rule="evenodd">
        <g id="logo" transform="translate(176.500000, 153.000000) rotate(90.000000) translate(-176.500000, -153.000000) translate(23.500000, 36.500000)">
            <g id="Group-Copy-2" transform="translate(-0.000000, -0.000000)">
                <rect id="Rectangle" fill="#F5625C" transform="translate(275.591445, 172.452261) scale(-1, 1) rotate(-7.000000) translate(-275.591445, -172.452261) " x="248.091445" y="147.452261" width="55" height="50" rx="12"></rect>
                <rect id="Rectangle-Copy" fill="#F5625C" transform="translate(274.843941, 60.768655) scale(-1, 1) rotate(12.000000) translate(-274.843941, -60.768655) " x="249.843941" y="35.7686552" width="50" height="50" rx="12"></rect>
                <rect id="Rectangle-Copy-28" fill="#F5625C" x="101" y="0" width="161" height="233" rx="30"></rect>
                <rect id="Rectangle-Copy-29" fill="#F7A81D" x="8" y="0" width="185" height="233" rx="30"></rect>
                <path d="M30,0 L50,0 C66.5685425,-3.04359188e-15 80,13.4314575 80,30 L80,203 C80,219.568542 66.5685425,233 50,233 L30,233 C13.4314575,233 1.67448831e-14,219.568542 -1.26217745e-29,203 L-1.26217745e-29,30 C-2.02906125e-15,13.4314575 13.4314575,3.04359188e-15 30,0 Z" id="Rectangle-Copy-30" fill="#00AD69"></path>
                <g id="eye" transform="translate(104.000000, 49.000000)" stroke="#00947E">
                    <ellipse id="Oval" stroke-width="5.78" fill="#FFFFFF" cx="20.5" cy="27.5" rx="23.39" ry="30.39"></ellipse>
                    <circle id="Oval" stroke-width="2.89" fill="#00947E" cx="21" cy="34" r="9.445"></circle>
                </g>
                <g id="eye-copy" transform="translate(104.000000, 128.000000)" stroke="#00947E">
                    <ellipse id="Oval" stroke-width="5.78" fill="#FFFFFF" cx="20.5" cy="27.5" rx="23.39" ry="30.39"></ellipse>
                    <circle id="Oval" stroke-width="2.89" fill="#00947E" cx="21" cy="34" r="9.445"></circle>
                </g>
                <path d="M192.607149,49.3028845 L204.107149,49.3028845 L204.107149,65.3028845 L192.607149,65.3028845 L192.607149,87.6059215 C191.229463,87.5933761 189.836874,87.2245133 188.570196,86.4641595 C187.445271,85.7888959 186.503694,84.8473188 185.82843,83.7223932 L172.140886,60.9202317 C170.619705,58.386087 170.619705,55.2196806 172.140886,52.685536 L185.82843,29.8833757 C187.312431,27.4111707 189.920967,26.0295459 192.607149,26 L192.607149,49.3028845 Z" id="Combined-Shape-Copy-21" fill="#F7A81D" transform="translate(187.553575, 56.802961) scale(-1, 1) translate(-187.553575, -56.802961) "></path>
                <path d="M83.5801515,51.6543395 L89.5801515,51.6543395 L89.5801515,70.6543395 L83.5801515,70.6543395 L83.5801515,90.3086992 C82.3877057,90.3015512 81.1785824,90.0266304 80.0409882,89.4547466 C78.5050762,88.6826232 77.2587314,87.4362901 76.4865938,85.9003852 L65.8523902,64.7472607 C64.7158817,62.4865642 64.7158693,59.8214705 65.8523568,57.5607635 L76.4859819,36.4082996 C77.8813792,33.6325678 80.6732236,32.0217891 83.5801515,32 L83.5801515,51.6543395 Z" id="Combined-Shape-Copy-21" fill="#00AD69" transform="translate(77.290076, 61.154350) scale(-1, 1) translate(-77.290076, -61.154350) "></path>
                <path d="M198.78027,160.429859 L202.78027,160.429859 L202.78027,176.429859 L198.78027,176.429859 L198.78027,194.859798 C197.691031,194.851555 196.585842,194.619483 195.530442,194.138976 C193.773136,193.338903 192.364489,191.930256 191.564416,190.17295 L182.719095,170.744801 C181.760302,168.638878 181.760302,166.220968 182.719095,164.115044 L191.564477,144.686768 C192.895576,141.763101 195.766672,140.026483 198.78027,140 L198.78027,160.429859 Z" id="Combined-Shape-Copy-22" fill="#F5625C"></path>
                <path d="M85.78027,160.429859 L89.78027,160.429859 L89.78027,176.429859 L85.78027,176.429859 L85.78027,194.859798 C84.6910305,194.851555 83.5858418,194.619483 82.5304419,194.138976 C80.7731359,193.338903 79.3644887,191.930256 78.5644157,190.17295 L69.7190947,170.744801 C68.7603016,168.638878 68.7603018,166.220968 69.7190951,164.115044 L78.5644772,144.686768 C79.8955759,141.763101 82.7666718,140.026483 85.78027,140 L85.78027,160.429859 Z" id="Combined-Shape-Copy-23" fill="#F7A81D"></path>
            </g>
        </g>
        <path d="" id="Path-2-Copy" stroke="#979797"></path>
        <g id="Group-2-Copy-4" transform="translate(0.000000, 124.000000)" fill="#F5625C">
            <path d="M60.6930882,88.8434613 C63.9972626,88.5922718 66.8794544,91.067205 67.1306439,94.3713793 C67.3818335,97.6755536 64.9069003,100.557745 61.602726,100.808935 C21.7168962,103.841131 0,89.4781515 0,58.3528354 C0,27.6053442 17.790453,12.6326979 50.5232102,15.3138686 C53.8258578,15.5843916 56.2838805,18.4810187 56.0133576,21.7836663 C55.7428346,25.0863139 52.8462075,27.5443366 49.5435599,27.2738137 C23.565137,25.1458968 12,34.8792467 12,58.3528354 C12,81.4485993 27.0483753,91.4011955 60.6930882,88.8434613 Z" id="Path-3" fill-rule="nonzero"></path>
            <path d="M42.3137085,3.34314575 L55.0416306,16.0710678 C58.1658249,19.1952621 58.1658249,24.260582 55.0416306,27.3847763 L42.3137085,40.1126984 C39.1895142,43.2368927 34.1241943,43.2368927 31,40.1126984 L31,3.34314575 C34.1241943,0.218951416 39.1895142,0.218951416 42.3137085,3.34314575 Z" id="Rectangle" transform="translate(44.192388, 21.727922) rotate(-3.000000) translate(-44.192388, -21.727922) "></path>
        </g>
        <g id="Group-2-Copy" transform="translate(0.000000, 22.000000)" fill="#F7A81D">
            <path d="M60.6930882,88.8358223 C63.9972626,88.5846328 66.8794544,91.0595659 67.1306439,94.3637402 C67.3818335,97.6679145 64.9069003,100.550106 61.602726,100.801296 C21.7168962,103.833491 0,89.4705125 0,58.3451964 C0,27.5977052 17.790453,12.6250589 50.5232102,15.3062296 C53.8258578,15.5767526 56.2838805,18.4733796 56.0133576,21.7760273 C55.7428346,25.0786749 52.8462075,27.5366976 49.5435599,27.2661746 C23.565137,25.1382578 12,34.8716077 12,58.3451964 C12,81.4409603 27.0483753,91.3935564 60.6930882,88.8358223 Z" id="Path-3-Copy" fill-rule="nonzero"></path>
            <path d="M41.3804444,3.0051751 L54.1083665,15.7330972 C57.2325608,18.8572915 57.2325608,23.9226113 54.1083665,27.0468057 L41.3804444,39.7747277 C38.2562501,42.8989221 33.1909302,42.8989221 30.0667359,39.7747277 L30.0667359,3.0051751 C33.1909302,-0.119019231 38.2562501,-0.119019231 41.3804444,3.0051751 Z" id="Rectangle-Copy-2" transform="translate(43.259124, 21.389951) rotate(-3.000000) translate(-43.259124, -21.389951) "></path>
        </g>
        <g id="Group-2-Copy-2" transform="translate(318.000000, 72.500000) scale(-1, -1) translate(-318.000000, -72.500000) translate(284.000000, 22.000000)" fill="#00AD69">
            <path d="M60.6930882,87.8358223 C63.9972626,87.5846328 66.8794544,90.0595659 67.1306439,93.3637402 C67.3818335,96.6679145 64.9069003,99.5501064 61.602726,99.8012959 C21.7168962,102.833491 0,88.4705125 0,57.3451964 C0,26.5977052 17.790453,11.6250589 50.5232102,14.3062296 C53.8258578,14.5767526 56.2838805,17.4733796 56.0133576,20.7760273 C55.7428346,24.0786749 52.8462075,26.5366976 49.5435599,26.2661746 C23.565137,24.1382578 12,33.8716077 12,57.3451964 C12,80.4409603 27.0483753,90.3935564 60.6930882,87.8358223 Z" id="Path-3-Copy-2" fill-rule="nonzero"></path>
            <path d="M42.6488918,3.01749788 L55.3768139,15.7454199 C58.5010082,18.8696143 58.5010082,23.9349341 55.3768139,27.0591284 L42.6488918,39.7870505 C39.5246975,42.9112448 34.4593777,42.9112448 31.3351834,39.7870505 L31.3351834,3.01749788 C34.4593777,-0.106696456 39.5246975,-0.106696456 42.6488918,3.01749788 Z" id="Rectangle-Copy-3" transform="translate(44.527572, 21.402274) rotate(-3.000000) translate(-44.527572, -21.402274) "></path>
        </g>
        <g id="Group-2-Copy-3" transform="translate(318.000000, 186.500000) scale(-1, -1) translate(-318.000000, -186.500000) translate(284.000000, 136.000000)" fill="#F7A81D">
            <path d="M60.6930882,87.8358223 C63.9972626,87.5846328 66.8794544,90.0595659 67.1306439,93.3637402 C67.3818335,96.6679145 64.9069003,99.5501064 61.602726,99.8012959 C21.7168962,102.833491 0,88.4705125 0,57.3451964 C0,26.5977052 17.790453,11.6250589 50.5232102,14.3062296 C53.8258578,14.5767526 56.2838805,17.4733796 56.0133576,20.7760273 C55.7428346,24.0786749 52.8462075,26.5366976 49.5435599,26.2661746 C23.565137,24.1382578 12,33.8716077 12,57.3451964 C12,80.4409603 27.0483753,90.3935564 60.6930882,87.8358223 Z" id="Path-3-Copy-3" fill-rule="nonzero"></path>
            <path d="M42.6488918,3.01749788 L55.3768139,15.7454199 C58.5010082,18.8696143 58.5010082,23.9349341 55.3768139,27.0591284 L42.6488918,39.7870505 C39.5246975,42.9112448 34.4593777,42.9112448 31.3351834,39.7870505 L31.3351834,3.01749788 C34.4593777,-0.106696456 39.5246975,-0.106696456 42.6488918,3.01749788 Z" id="Rectangle-Copy-4" transform="translate(44.527572, 21.402274) rotate(-3.000000) translate(-44.527572, -21.402274) "></path>
        </g>
        <path d="M155,171 C160.160168,174.333333 167.460949,176 176.902344,176 C186.343738,176 193.709624,174.333333 199,171" id="Path-4" stroke="#00947E" stroke-width="5" stroke-linecap="round" stroke-linejoin="round"></path>
    </g>
</svg>